<?xml version="1.0" encoding="utf-8"?>
<!-- Generator: Adobe Illustrator 22.1.0, SVG Export Plug-In . SVG Version: 6.00 Build 0)  -->
<svg version="1.1" id="Warstwa_1" xmlns="http://www.w3.org/2000/svg" xmlns:xlink="http://www.w3.org/1999/xlink" x="0px" y="0px"
	 viewBox="0 0 625 625" style="enable-background:new 0 0 625 625;" xml:space="preserve">
<style type="text/css">
	.st0{fill:none;stroke:#000000;stroke-width:30;}
	.st1{fill:#FFFFFF;stroke:#000000;stroke-miterlimit:10;}
</style>
<title>keda-icon-bw</title>
<g id="Icon">
	<g id="k8s-icon-1">
		<g id="Kubernetes_Logo_Hrz_lockup_REV">
			<path id="Shape" class="st0" d="M522.2,172.9c-1.9-5.4-6.3-10.4-12.4-13.6L318.8,68.7l-0.1-0.1c-2.1-1-5.1-1.6-9-1.6
				c-3.6,0-5.1,0-7,0.1c-1.3,0.1-2.6,0.2-3.9,0.4l-189.7,90.5l-0.2,0.1c-5.3,2.4-9.2,7.1-10.5,12.8L51.5,374.8
				c-1,6.2,0.5,12.6,4.1,17.8l131.5,161c5,4.7,11.4,7.6,18.3,8.2h211.1l0.8,0.1c5.8,0.6,11.3-1.9,15.2-7.1l0.2-0.3l132.3-162
				c3.7-5.3,5.3-11.8,4.7-18.2L522.2,172.9z"/>
		</g>
	</g>
	<g id="nodes">
		<circle id="Oval-2" cx="438" cy="553" r="39"/>
		<circle id="Oval-2-2" cx="196" cy="553" r="39"/>
		<circle id="Oval-2-3" cx="307" cy="73" r="39"/>
		<circle id="Oval-2-4" cx="518" cy="165" r="39"/>
		<circle id="Oval-2-5" cx="100" cy="165" r="39"/>
		<circle id="Oval-2-6" cx="567" cy="384" r="39"/>
		<circle id="Oval-2-7" cx="59" cy="384" r="39"/>
	</g>
	<g id="Warstwa_1-2">
		<g id="Wordmark">
			<path id="KEDA" d="M195.8,367l-23-41.1l-6.9,7.1v34h-18v-89.9h18v29l26.3-29h24.3L185,312.3l32.2,54.7H195.8z M295.7,277.1v18
				h-60v-18H295.7z M235.7,329.8v-18h49.7v18H235.7z M235.7,367.1v-18h59.6v18H235.7z M314.1,277.1h25.4
				c11.9-0.1,23.3,4.6,31.7,13.1c4.2,4.1,7.4,9,9.6,14.4c4.8,11.2,4.8,23.9,0,35c-2.2,5.4-5.4,10.2-9.6,14.2
				c-8.4,8.4-19.8,13.2-31.7,13.2h-18V367h-7.3L314.1,277.1z M332.1,349.1h7.5c14.9,0,27-12.1,27-27s-12.1-27-27-27l0,0h-7.5V349.1z
				 M434.7,277.1h5.3l42.5,90h-19.9l-25.7-54.7L409,367.1h-20.2L434.7,277.1z"/>
			<polygon class="st1" points="446.7,363.3 451.6,354.6 432.8,354.6 438.4,315.5 438.1,315 408.3,369 408.3,369 407.4,370.6
				426.5,370.4 421.5,408.9 421.6,409.4 444.7,367.1 444.6,367.1 444.6,367.1 			"/>
			<path id="Combined-Shape" d="M444.7,367.1l6.9-12.5h-18.8l5.9-40.5l-29.3,53h-6.5l34-63.7l34,63.7L444.7,367.1z"/>
		</g>
	</g>
</g>
</svg>
