<svg id="Warstwa_1" data-name="Warstwa 1" xmlns="http://www.w3.org/2000/svg" viewBox="0 0 820.61 346.62"><defs><style>.cls-1{fill:#fff;}.cls-2{fill:none;stroke:#fff;stroke-miterlimit:10;}</style></defs><title>keda-word-white</title><g id="Warstwa_1-2" data-name="Warstwa 1"><g id="Wordmark"><path id="KEDA" class="cls-1" d="M164.75,212.8,117.5,128.32l-14.26,14.52v70h-37V28h37V87.67L157.36,28h49.9l-64.68,72.34L208.84,212.8ZM370.16,28V65H246.87V28ZM246.87,136.24v-37H349v37Zm0,76.83v-37h122.5v37ZM408.16,28h52.28a91,91,0,0,1,65.2,26.93,87.88,87.88,0,0,1,19.8,29.57,91.41,91.41,0,0,1,0,72.07,84.2,84.2,0,0,1-19.8,29.3,92.65,92.65,0,0,1-65.2,27.2h-37.2v-.27H408.16Zm37,148.11h15.32a55.58,55.58,0,0,0,0-111.15H445.16ZM656.16,28H667l87.38,185.07h-41l-52.8-112.45L603.31,213.07H561.86Z"/><polygon class="cls-2" points="680.78 205.35 690.8 187.41 652.06 187.41 663.64 107.08 663.05 106.01 601.79 216.96 601.81 216.96 599.96 220.26 639.29 219.95 628.83 298.94 629.08 299.98 676.55 213.05 676.53 213.05 676.53 213.05 680.78 205.35"/><path id="Combined-Shape" class="cls-1" d="M676.55,213.06l14.14-25.61H652l12.12-83.29L604,213.06H590.7l69.82-131,69.81,131Z"/></g></g></svg>
