<?xml version="1.0" encoding="utf-8"?>
<!-- Generator: Adobe Illustrator 22.1.0, SVG Export Plug-In . SVG Version: 6.00 Build 0)  -->
<svg version="1.1" id="Warstwa_1" xmlns="http://www.w3.org/2000/svg" xmlns:xlink="http://www.w3.org/1999/xlink" x="0px" y="0px"
	 viewBox="0 0 820.6 346.6" style="enable-background:new 0 0 820.6 346.6;" xml:space="preserve">
<style type="text/css">
	.st0{fill:#FFFFFF;stroke:#000000;stroke-miterlimit:10;}
</style>
<title>keda-word-bw</title>
<g id="Warstwa_1-2">
	<g id="Wordmark">
		<path id="KEDA" d="M164.8,212.8l-47.2-84.5l-14.3,14.5v70h-37V28h37v59.7L157.4,28h49.9l-64.7,72.3l66.3,112.5H164.8z M370.2,28
			v37H246.9V28H370.2z M246.9,136.2v-37H349v37H246.9z M246.9,213.1v-37h122.5v37H246.9z M408.2,28h52.3c24.5-0.2,48,9.6,65.2,26.9
			c8.5,8.4,15.3,18.5,19.8,29.6c9.9,23,9.9,49.1,0,72.1c-4.5,11.1-11.2,21-19.8,29.3c-17.3,17.3-40.7,27.1-65.2,27.2h-37.2v-0.3
			h-15.1V28z M445.2,176.1h15.3c30.7-0.4,55.2-25.6,54.8-56.3c-0.4-30.1-24.7-54.4-54.8-54.8h-15.3V176.1z M656.2,28H667l87.4,185.1
			h-41l-52.8-112.5l-57.3,112.5h-41.5L656.2,28z"/>
		<polygon class="st0" points="680.8,205.4 690.8,187.4 652.1,187.4 663.6,107.1 663,106 601.8,217 601.8,217 600,220.3
			639.3,219.9 628.8,298.9 629.1,300 676.5,213.1 676.5,213.1 676.5,213.1 		"/>
		<path id="Combined-Shape" d="M676.5,213.1l14.1-25.6H652l12.1-83.3L604,213.1h-13.3l69.8-131l69.8,131H676.5z"/>
	</g>
</g>
</svg>
