<?xml version="1.0" encoding="utf-8"?>
<!-- Generator: Adobe Illustrator 22.1.0, SVG Export Plug-In . SVG Version: 6.00 Build 0)  -->
<svg version="1.1" id="Warstwa_1" xmlns="http://www.w3.org/2000/svg" xmlns:xlink="http://www.w3.org/1999/xlink" x="0px" y="0px"
	 viewBox="0 0 906.2 906.2" style="enable-background:new 0 0 906.2 906.2;" xml:space="preserve">
<style type="text/css">
	.st0{fill:#326DE6;}
	.st1{fill:#FFFFFF;}
</style>
<title>keda-word</title>
<g id="Warstwa_1-2">
	<g id="Wordmark">
		<path id="KEDA" class="st0" d="M207.5,492.8l-47.2-84.5L146,422.8v70h-37V308h37v59.7l54.1-59.7H250l-64.7,72.3l66.3,112.5H207.5z
			 M412.9,308v37H289.7v-37H412.9z M289.7,416.2v-37h102.1v37H289.7z M289.7,493.1v-37h122.5v37H289.7z M450.9,308h52.3
			c24.5-0.2,48,9.6,65.2,26.9c8.5,8.4,15.3,18.5,19.8,29.6c9.9,23,9.9,49.1,0,72.1c-4.5,11.1-11.2,21-19.8,29.3
			c-17.3,17.3-40.7,27.1-65.2,27.2H466v-0.3h-15.1V308z M487.9,456.1h15.3c30.7-0.4,55.2-25.6,54.8-56.3
			c-0.4-30.1-24.7-54.4-54.8-54.8h-15.3V456.1z M698.9,308h10.8l87.4,185.1h-41l-52.8-112.4l-57.3,112.4h-41.5L698.9,308z"/>

			<image style="overflow:visible;opacity:0.95;enable-background:new    ;" width="126" height="231" xlink:href="A04350A68EF731DF.png"  transform="matrix(0.9921 0 0 0.9921 625.9449 369.0308)">
		</image>
		<polygon class="st1" points="723.6,485.3 733.6,467.4 694.8,467.4 706.4,387.1 705.8,386 644.6,497 644.6,497 642.7,500.3
			682.1,499.9 671.6,578.9 671.9,580 719.3,493 719.3,493 719.3,493 		"/>
		<path id="Combined-Shape" class="st0" d="M719.3,493.1l14.1-25.6h-38.7l12.1-83.3l-60.1,108.9h-13.3l69.8-131l69.8,131H719.3z"/>
	</g>
</g>
</svg>
