<?xml version="1.0" encoding="UTF-8" standalone="no"?>
<svg
   xmlns:dc="http://purl.org/dc/elements/1.1/"
   xmlns:cc="http://creativecommons.org/ns#"
   xmlns:rdf="http://www.w3.org/1999/02/22-rdf-syntax-ns#"
   xmlns:svg="http://www.w3.org/2000/svg"
   xmlns="http://www.w3.org/2000/svg"
   xml:space="preserve"
   enable-background="new 0 0 100 100"
   viewBox="0 0 100 100"
   height="100px"
   width="100px"
   y="0px"
   x="0px"
   id="Layer_1"
   version="1.1"><metadata
     id="metadata13"><rdf:RDF><cc:Work
         rdf:about=""><dc:format>image/svg+xml</dc:format><dc:type
           rdf:resource="http://purl.org/dc/dcmitype/StillImage" /><dc:title></dc:title></cc:Work></rdf:RDF></metadata><defs
     id="defs11" /><g
     transform="matrix(1.4675738,0,0,1.4675738,-23.381625,-23.380891)"
     id="g6"><path
       style="fill:#006069"
       id="path2"
       d="m 76.827,49.835 c 0,-3.471 1.938,-6.488 4.79,-8.03 -0.772,-2.959 -2.031,-6.055 -3.649,-8.594 -3.087,0.891 -6.552,0.12 -8.983,-2.312 -2.418,-2.418 -3.19,-5.854 -2.326,-8.927 -2.735,-1.623 -5.646,-2.83 -8.647,-3.586 -1.563,2.786 -4.541,4.671 -7.962,4.671 -3.432,0 -6.417,-1.896 -7.974,-4.694 -3.011,0.752 -5.915,1.947 -8.646,3.561 0.884,3.085 0.116,6.546 -2.315,8.976 -2.453,2.454 -5.952,3.205 -9.059,2.28 -1.506,2.322 -2.82,5.695 -3.575,8.626 2.852,1.543 4.746,4.56 4.791,8.03 0.022,1.74 -0.616,5.784 -4.988,8.144 0.741,2.993 1.926,5.869 3.521,8.587 3.166,-1.043 6.791,-0.314 9.31,2.204 2.537,2.538 3.257,6.194 2.181,9.377 2.729,1.632 5.607,2.73 8.604,3.492 1.501,-2.98 4.586,-5.025 8.15,-5.025 3.554,0 6.633,2.035 8.139,5.002 3.002,-0.765 5.876,-1.883 8.599,-3.515 -1.053,-3.172 -0.326,-6.806 2.197,-9.331 2.498,-2.496 6.081,-3.235 9.229,-2.232 1.9,-3.348 2.684,-5.295 3.506,-8.622 -2.908,-1.528 -4.893,-4.572 -4.893,-8.082 z M 50.049,71.597 c -11.917,0 -21.576,-9.658 -21.576,-21.572 0,-11.917 9.66,-21.576 21.576,-21.576 11.916,0 21.575,9.658 21.575,21.576 0,11.913 -9.659,21.572 -21.575,21.572 z" /><path
       style="fill:#00b8d4"
       id="path4"
       d="m 50.049,31.583 v 0 c -10.186,0 -18.439,8.256 -18.439,18.441 0,10.185 8.254,18.44 18.438,18.44 10.183,0 18.44,-8.256 18.442,-18.439 0,-10e-4 0,-10e-4 0,-10e-4 0,-10.185 -8.257,-18.441 -18.441,-18.441 z m -6.597,15.36 -5.327,3.098 5.327,3.112 v 4.111 l -8.765,-5.509 v -3.45 l 8.765,-5.501 z m 6.494,11.908 H 47.349 L 50.17,41.198 h 2.61 z m 15.464,-7.095 -8.763,5.509 v -4.111 l 5.327,-3.112 -5.327,-3.098 v -4.138 l 8.763,5.501 z" /></g></svg>