<?xml version="1.0" encoding="UTF-8"?>
<svg width="946px" height="352px" viewBox="0 0 946 352" version="1.1" xmlns="http://www.w3.org/2000/svg" xmlns:xlink="http://www.w3.org/1999/xlink">
    <!-- Generator: Sketch 51.3 (57544) - http://www.bohemiancoding.com/sketch -->
    <title>Wordmark</title>
    <desc>Created with Sketch.</desc>
    <defs></defs>
    <g id="Wordmark" stroke="none" stroke-width="1" fill="none" fill-rule="evenodd">
        <path d="M235.059,263.736 L187.803,179.256 L173.547,193.776 L173.547,263.736 L136.587,263.736 L136.587,78.936 L173.547,78.936 L173.547,138.6 L227.667,78.936 L277.563,78.936 L212.883,151.272 L279.147,263.736 L235.059,263.736 Z M440.4675,78.936 L440.4675,115.896 L317.1795,115.896 L317.1795,78.936 L440.4675,78.936 Z M317.1795,187.176 L317.1795,150.216 L419.3475,150.216 L419.3475,187.176 L317.1795,187.176 Z M317.1795,264 L317.1795,227.04 L439.6755,227.04 L439.6755,264 L317.1795,264 Z M478.5,78.936 L530.772,78.936 C543.18,78.936 555.324,81.312 566.676,86.064 C577.764,90.816 587.532,97.416 595.98,105.864 C604.692,114.576 611.292,124.344 615.78,135.432 C620.796,146.784 623.172,158.928 623.172,171.336 C623.172,184.008 620.796,196.152 615.78,207.504 C611.292,218.592 604.692,228.36 595.98,236.808 C587.532,245.256 577.764,252.12 566.676,256.608 C555.324,261.624 543.18,264 530.772,264 L493.548,264 L493.548,263.736 L478.5,263.736 L478.5,78.936 Z M515.46,227.04 L530.772,227.04 C561.396,227.04 586.212,201.96 586.212,171.336 C586.212,140.712 561.396,115.896 530.772,115.896 L515.46,115.896 L515.46,227.04 Z M726.4125,78.936 L737.2365,78.936 L824.6205,264 L783.7005,264 L730.9005,151.536 L673.6125,264 L632.1645,264 L726.4125,78.936 Z" id="KEDA" fill="#326DE6"></path>
        <g id="Group" transform="translate(681.000000, 166.000000)"></g>
        <path d="M746.854953,263.990234 L761,238.386728 L722.345133,238.386728 L734.424779,155.091533 L674.262032,263.990234 L661.003906,263.990234 L730.821289,132.996094 L800.638672,263.990234 L746.854953,263.990234 Z" id="Combined-Shape" fill="#326DE6" fill-rule="nonzero"></path>
    </g>
</svg>